<?xml version="1.0" standalone="no"?>
<svg viewBox="0 0 200 200" xmlns="http://www.w3.org/2000/svg">
  <path fill="#FF0066" d="M49.9,-68.6C65.3,-57.5,78.9,-43.8,84.2,-27.4C89.5,-11,86.4,8.1,80.8,26.5C75.2,45,66.9,62.8,53,73.1C39.1,83.3,19.5,86,0.9,84.8C-17.8,83.6,-35.6,78.5,-50.1,68.4C-64.6,58.4,-75.8,43.3,-81,26.5C-86.3,9.7,-85.5,-9,-80.5,-26.6C-75.4,-44.3,-65.9,-61,-51.7,-72.5C-37.6,-84.1,-18.8,-90.5,-0.8,-89.4C17.2,-88.3,34.5,-79.8,49.9,-68.6Z" transform="translate(100 100)">
    <animate attributeType="XML"
        attributeName="d"
        dur="8s"
        repeatCount="indefinite"
        values="
                M49.9,-68.6C65.3,-57.5,78.9,-43.8,84.2,-27.4C89.5,-11,86.4,8.1,80.8,26.5C75.2,45,66.9,62.8,53,73.1C39.1,83.3,19.5,86,0.9,84.8C-17.8,83.6,-35.6,78.5,-50.1,68.4C-64.6,58.4,-75.8,43.3,-81,26.5C-86.3,9.7,-85.5,-9,-80.5,-26.6C-75.4,-44.3,-65.9,-61,-51.7,-72.5C-37.6,-84.1,-18.8,-90.5,-0.8,-89.4C17.2,-88.3,34.5,-79.8,49.9,-68.6Z;
                M26.4,-28.3C40,-26.4,60.8,-26.5,63.7,-20.1C66.6,-13.7,51.6,-0.9,44.7,12.7C37.8,26.3,38.9,40.8,32.8,48.7C26.7,56.7,13.4,58.2,4,52.7C-5.4,47.2,-10.7,34.7,-19.5,27.6C-28.2,20.4,-40.3,18.7,-48.3,11.6C-56.3,4.4,-60.2,-8.2,-60.5,-23.5C-60.7,-38.7,-57.4,-56.6,-46.8,-59.4C-36.1,-62.2,-18,-49.8,-5.8,-41.8C6.4,-33.8,12.8,-30.1,26.4,-28.3Z;
                M36.8,-57.6C40.4,-48,31.1,-27.5,24.8,-15.5C18.5,-3.4,15.1,0.2,15.4,6.8C15.7,13.3,19.6,22.8,17.6,34.8C15.6,46.9,7.8,61.6,0.1,61.5C-7.7,61.4,-15.3,46.5,-28.1,38C-41,29.4,-58.9,27.2,-57.3,21.2C-55.6,15.2,-34.3,5.5,-30.6,-11.1C-26.8,-27.7,-40.6,-51.3,-38.4,-61.4C-36.2,-71.5,-18.1,-68.3,-0.8,-67.2C16.6,-66.2,33.1,-67.3,36.8,-57.6Z;
                M45.3,-62.2C59.5,-51.9,72.6,-39.9,78.6,-24.7C84.6,-9.6,83.6,8.6,77.1,24C70.7,39.4,58.9,52.1,45.1,64C31.3,75.9,15.7,87,-1.9,89.7C-19.6,92.4,-39.1,86.6,-51.9,74.4C-64.7,62.2,-70.7,43.5,-74.3,25.8C-77.8,8,-78.8,-9,-73.9,-24C-69,-38.9,-58.1,-51.9,-44.7,-62.5C-31.4,-73.1,-15.7,-81.4,-0.1,-81.2C15.5,-81.1,31,-72.5,45.3,-62.2Z;
                M49.9,-68.6C65.3,-57.5,78.9,-43.8,84.2,-27.4C89.5,-11,86.4,8.1,80.8,26.5C75.2,45,66.9,62.8,53,73.1C39.1,83.3,19.5,86,0.9,84.8C-17.8,83.6,-35.6,78.5,-50.1,68.4C-64.6,58.4,-75.8,43.3,-81,26.5C-86.3,9.7,-85.5,-9,-80.5,-26.6C-75.4,-44.3,-65.9,-61,-51.7,-72.5C-37.6,-84.1,-18.8,-90.5,-0.8,-89.4C17.2,-88.3,34.5,-79.8,49.9,-68.6Z
                " />
  </path>
</svg>
